<svg id="Calque_2" data-name="Calque 2" xmlns="http://www.w3.org/2000/svg" xmlns:xlink="http://www.w3.org/1999/xlink" viewBox="0 0 2000 2000"><defs><style>.cls-1{fill:#009fe3;}.cls-2{fill:url(#Dégradé_sans_nom_32);}.cls-3{fill:#717272;}.cls-4{fill:url(#Dégradé_sans_nom_31);}.cls-5{font-size:746.27px;fill:#1d71b8;font-family:Montserrat-Bold, Montserrat;font-weight:700;}</style><linearGradient id="Dégradé_sans_nom_32" x1="1009.61" y1="216.82" x2="1224.88" y2="1437.71" gradientUnits="userSpaceOnUse"><stop offset="0" stop-color="#3ad235"/><stop offset="0.02" stop-color="#38cd3c"/><stop offset="0.16" stop-color="#30b162"/><stop offset="0.31" stop-color="#299a81"/><stop offset="0.46" stop-color="#248899"/><stop offset="0.62" stop-color="#207bab"/><stop offset="0.79" stop-color="#1e73b5"/><stop offset="1" stop-color="#1d71b8"/></linearGradient><linearGradient id="Dégradé_sans_nom_31" x1="836.14" y1="372.04" x2="1642.54" y2="1178.44" gradientUnits="userSpaceOnUse"><stop offset="0" stop-color="#3ad235"/><stop offset="1" stop-color="#1d71b8"/></linearGradient></defs><path class="cls-1" d="M1117.24,207.51A622.71,622.71,0,0,0,987,221.22v0c-279.73,59.84-489.47,308.43-489.47,606C497.48,1169.55,775,1447,1117.24,1447a623.76,623.76,0,0,0,85.66-5.88c301.75-41.71,534.1-300.67,534.1-613.88C1737,485,1459.52,207.51,1117.24,207.51Zm62,1099.81a542.41,542.41,0,0,1-72.65,4.87c-297.2,0-538.14-240.94-538.14-538.14,0-257.79,181.27-473.25,423.3-525.86a540.4,540.4,0,0,1,114.84-12.28c297.21,0,538.15,240.93,538.15,538.14C1644.71,1046.62,1442.06,1271.86,1179.21,1307.32Z"/><path class="cls-1" d="M1117.24,207.51A622.71,622.71,0,0,0,987,221.22v0c-279.73,59.84-489.47,308.43-489.47,606C497.48,1169.55,775,1447,1117.24,1447a623.76,623.76,0,0,0,85.66-5.88c301.75-41.71,534.1-300.67,534.1-613.88C1737,485,1459.52,207.51,1117.24,207.51Zm62,1099.81a542.41,542.41,0,0,1-72.65,4.87c-297.2,0-538.14-240.94-538.14-538.14,0-257.79,181.27-473.25,423.3-525.86a540.4,540.4,0,0,1,114.84-12.28c297.21,0,538.15,240.93,538.15,538.14C1644.71,1046.62,1442.06,1271.86,1179.21,1307.32Z"/><path class="cls-2" d="M1117.24,207.51A622.71,622.71,0,0,0,987,221.22v0c-279.73,59.84-489.47,308.43-489.47,606C497.48,1169.55,775,1447,1117.24,1447a623.76,623.76,0,0,0,85.66-5.88c301.75-41.71,534.1-300.67,534.1-613.88C1737,485,1459.52,207.51,1117.24,207.51Zm62,1099.81a542.41,542.41,0,0,1-72.65,4.87c-297.2,0-538.14-240.94-538.14-538.14,0-257.79,181.27-473.25,423.3-525.86a540.4,540.4,0,0,1,114.84-12.28c297.21,0,538.15,240.93,538.15,538.14C1644.71,1046.62,1442.06,1271.86,1179.21,1307.32Z"/><path class="cls-3" d="M1273.64,1840.77a887,887,0,0,1-130.48,9.61C657.05,1850.38,263,1456.31,263,970.22c0-425.72,309.66-738.95,711.27-820.6l3.63,20.53C661.72,233.9,423.63,513.25,423.63,848.21c0,382,309.71,691.73,691.73,691.73a697.15,697.15,0,0,0,103.65-7.72Z"/><path class="cls-4" d="M1737,827.27c0,313.21-232.35,572.17-534.1,613.88l-23.69-133.83c262.85-35.46,465.5-260.7,465.5-533.27,0-297.21-240.94-538.14-538.15-538.14a540.4,540.4,0,0,0-114.84,12.28L987,221.24v0a622.71,622.71,0,0,1,130.29-13.71C1459.52,207.51,1737,485,1737,827.27Z"/><text class="cls-5" transform="translate(893.43 1040.63)">L</text></svg>